<svg width="20" height="20" viewBox="0 0 20 20" fill="none" xmlns="http://www.w3.org/2000/svg">
<g id="cellphone 1">
<g id="layer1">
<path id="rect845" d="M5 0.625C3.97206 0.625 3.125 1.47206 3.125 2.5V17.5C3.125 18.5279 3.97206 19.375 5 19.375H15C16.0279 19.375 16.875 18.5279 16.875 17.5V2.5C16.875 1.47206 16.0279 0.625 15 0.625H5ZM8.75244 1.875H11.2476C11.3308 1.87313 11.4136 1.88791 11.4911 1.91848C11.5685 1.94905 11.6391 1.99479 11.6987 2.05301C11.7582 2.11124 11.8055 2.18077 11.8378 2.25753C11.8701 2.33428 11.8867 2.41672 11.8867 2.5C11.8867 2.58328 11.8701 2.66572 11.8378 2.74248C11.8055 2.81923 11.7582 2.88876 11.6987 2.94699C11.6391 3.00521 11.5685 3.05095 11.4911 3.08152C11.4136 3.11209 11.3308 3.12687 11.2476 3.125H8.75244C8.66918 3.12687 8.58639 3.11209 8.50893 3.08152C8.43146 3.05095 8.36089 3.00521 8.30134 2.94699C8.2418 2.88876 8.19449 2.81923 8.16219 2.74248C8.12989 2.66572 8.11325 2.58328 8.11325 2.5C8.11325 2.41672 8.12989 2.33428 8.16219 2.25753C8.19449 2.18077 8.2418 2.11124 8.30134 2.05301C8.36089 1.99479 8.43146 1.94905 8.50893 1.91848C8.58639 1.88791 8.66918 1.87313 8.75244 1.875ZM10 16.8787C10.1658 16.8787 10.3247 16.9445 10.4419 17.0617C10.5592 17.1789 10.625 17.3379 10.625 17.5037C10.625 17.6694 10.5592 17.8284 10.4419 17.9456C10.3247 18.0628 10.1658 18.1287 10 18.1287C9.83424 18.1287 9.67527 18.0628 9.55806 17.9456C9.44085 17.8284 9.375 17.6694 9.375 17.5037C9.375 17.3379 9.44085 17.1789 9.55806 17.0617C9.67527 16.9445 9.83424 16.8787 10 16.8787Z" fill="black"/>
</g>
</g>
</svg>
