<svg width="40" height="40" viewBox="0 0 40 40" fill="none" xmlns="http://www.w3.org/2000/svg">
<g id="position 1">
<path id="Vector" d="M20 1.33656C14.0836 1.33656 9.28735 6.13281 9.28735 12.0492C9.29164 13.8656 9.75781 15.6513 10.192 16.4447L20 38.6634L29.3736 17.2381H29.3687C30.2491 15.6503 30.7115 13.8647 30.7126 12.0492C30.7127 6.13281 25.9164 1.33656 20 1.33656ZM20 6.69281C20.7034 6.69281 21.3999 6.83136 22.0498 7.10055C22.6996 7.36973 23.2901 7.76429 23.7875 8.26168C24.2849 8.75907 24.6794 9.34956 24.9486 9.99942C25.2177 10.6493 25.3563 11.3458 25.3563 12.0492C25.3563 13.4698 24.7919 14.8322 23.7874 15.8367C22.783 16.8412 21.4206 17.4055 20 17.4055C18.5794 17.4055 17.2171 16.8412 16.2126 15.8367C15.2081 14.8322 14.6438 13.4698 14.6438 12.0492C14.6438 10.6287 15.2081 9.26627 16.2126 8.26178C17.2171 7.25729 18.5794 6.69297 20 6.69297V6.69281Z" fill="black"/>
</g>
</svg>
